<svg xmlns="http://www.w3.org/2000/svg" viewBox="0 0 80 80" width="16px" height="16px"><path fill="#f78f8f" d="M76.993,77.479c-4.54-0.181-9.738-1.562-14.762-3.935l-0.193-0.091L61.84,73.53 C58.411,74.837,54.764,75.5,51,75.5c-14.612,0-26.5-10.094-26.5-22.5S36.388,30.5,51,30.5S77.5,40.594,77.5,53 c0,5.191-2.134,10.258-6.009,14.266l-0.242,0.251L71.4,67.83C73.215,71.602,75.094,74.842,76.993,77.479z"/><path fill="#c74343" d="M51,31c14.336,0,26,9.869,26,22c0,5.061-2.084,10.004-5.869,13.918l-0.484,0.501l0.302,0.628 c1.637,3.402,3.327,6.377,5.04,8.873c-4.223-0.329-8.954-1.659-13.545-3.827l-0.385-0.182l-0.398,0.152 C58.29,74.348,54.703,75,51,75c-14.336,0-26-9.869-26-22S36.664,31,51,31 M51,30c-14.912,0-27,10.297-27,23 c0,12.703,12.088,23,27,23c3.926,0,7.652-0.72,11.017-2.003C67.105,76.4,72.814,78,78,78c-2.352-3.098-4.402-6.754-6.15-10.387 C75.692,63.64,78,58.55,78,53C78,40.297,65.912,30,51,30L51,30z"/><path fill="#fff" d="M61.534,62.538h-5.33l-1.545-4.83h-7.723l-1.529,4.83h-5.3l7.904-21.714h5.8L61.534,62.538z M53.539,53.952c0,0-2.625-8.495-2.695-9.252h-0.121c-0.05,0.636-2.741,9.252-2.741,9.252H53.539z"/><path fill="#8bb7f0" d="M3.007,49.479c1.899-2.638,3.778-5.878,5.593-9.649l0.151-0.313l-0.242-0.251 C4.634,35.258,2.5,30.191,2.5,25C2.5,12.594,14.388,2.5,29,2.5S55.5,12.594,55.5,25S43.612,47.5,29,47.5 c-3.764,0-7.411-0.663-10.84-1.97l-0.198-0.076l-0.193,0.091C12.745,47.918,7.547,49.299,3.007,49.479z"/><path fill="#4e7ab5" d="M29,3c14.336,0,26,9.869,26,22S43.336,47,29,47c-3.703,0-7.29-0.652-10.661-1.937l-0.398-0.152 l-0.385,0.182c-4.591,2.168-9.322,3.498-13.545,3.827c1.712-2.496,3.403-5.471,5.04-8.873l0.302-0.628l-0.484-0.501 C5.084,35.004,3,30.061,3,25C3,12.869,14.664,3,29,3 M29,2C14.088,2,2,12.297,2,25c0,5.55,2.308,10.64,6.15,14.613 C6.402,43.246,4.352,46.902,2,50c5.186,0,10.895-1.6,15.983-4.003C21.348,47.28,25.074,48,29,48c14.912,0,27-10.297,27-23 C56,12.297,43.912,2,29,2L29,2z"/><g><path fill="#fff" d="M28.534,35.965c-2.986,0-5.42-1.077-7.301-3.232c-1.881-2.176-2.822-4.993-2.822-8.452 c0-3.652,0.955-6.615,2.865-8.888c1.9-2.262,4.431-3.394,7.592-3.394c2.977,0,5.381,1.083,7.214,3.248 c1.842,2.155,2.763,5.01,2.763,8.565c0,3.631-0.955,6.566-2.865,8.807c-0.068,0.075-0.131,0.148-0.189,0.218 c-0.058,0.07-0.121,0.137-0.189,0.202l5.279,5.64h-6.574l-2.763-3.119C30.634,35.831,29.63,35.965,28.534,35.965z M28.738,16.493 c-1.639,0-2.948,0.689-3.927,2.068c-0.97,1.368-1.454,3.184-1.454,5.446c0,2.295,0.485,4.11,1.454,5.446 c0.97,1.336,2.24,2.004,3.811,2.004c1.619,0,2.904-0.646,3.854-1.939c0.95-1.314,1.425-3.119,1.425-5.414 c0-2.392-0.461-4.261-1.382-5.608C31.608,17.16,30.348,16.493,28.738,16.493z"/></g></svg>